<svg width="20" height="21" viewBox="0 0 20 21" fill="none" xmlns="http://www.w3.org/2000/svg">
<path d="M0 11.2875C0 8.87584 1.87791 6.89627 4.23116 6.78512L4.44 6.7802H9.23V12.8849C9.23 13.3224 9.57 13.6683 10 13.6683C10.385 13.6683 10.7112 13.3776 10.7629 12.9922L10.77 12.8849V6.7802H15.55C17.93 6.7802 19.8853 8.69086 19.9951 11.0945L20 11.3078V16.2628C20 18.6843 18.1221 20.6641 15.7688 20.7753L15.56 20.7802H4.45C2.06029 20.7802 0.114098 18.8599 0.00483802 16.4651L0 16.2526V11.2875ZM6.5502 4.24C6.26838 3.96727 6.24276 3.53752 6.46583 3.23624L6.5402 3.15L9.4502 0.23C9.6002 0.08 9.7902 0 10.0002 0C10.1602 0 10.3202 0.0512 10.4495 0.14848L10.5402 0.23L13.4502 3.15C13.6002 3.3 13.6802 3.5 13.6802 3.69C13.6802 3.89 13.6002 4.09 13.4502 4.24C13.1775 4.51273 12.7477 4.53752 12.4464 4.31438L12.3602 4.24L10.7702 2.64V6.78H9.2302V2.64L7.6402 4.24C7.3402 4.54 6.8502 4.54 6.5502 4.24Z" fill="#617AFD"/>
</svg>
